# xmcd
#
# Track frame offsets:
#	150
#	15780
#	25320
#	38075
#	42957
#	61807
#	70612
#	82950
#	95527
#	109552
#	118820
#	128345
#	139835
#	149000
#	162772
#	175347
#	186307
#	197542
#	210830
#	222155
#
# Disc length: 3096 seconds
#
# Revision: 1
# Processed by: cddbd v1.4PL0 Copyright (c) Steve Scherf et al.
# Submitted via: EasyCDDAExtractor 6.0.0.1
#
DISCID=080c1614
DTITLE=Various Artist - Country Christmas Vol 2
DYEAR=1995
DGENRE=Country
TTITLE0=Compilation - First Noel - Suzy Bogguss
TTITLE1=Christmas in my home town - Charlie pride
TTITLE2=love Gets better at Christmas
TTITLE3=O Come All Ye Faithful - Skp Ewing
TTITLE4=Till the Seasons Come round again - Vince Gill
TTITLE5=Frosty the Snowman - Loretta Lynn
TTITLE6=Christmas is just another day - Ernest Tubb
TTITLE7=i'll Be Home for Christmas - Glynn Campbell
TTITLE8=Santa bring my Baby home - Barbara Mandrell
TTITLE9=Winter Wonderland - Sammy Kershaw
TTITLE10=Rockin' Round the Christmas Tree - Brenda Lee
TTITLE11=Thank God for Kids - oakridge Boys
TTITLE12=White Christmas - Leretta Lynn
TTITLE13=O HOly Night - lee Greenwood
TTITLE14=Christmas Time's a - coming - Bill monroe
TTITLE15=Blue Christmas - Merle haggard
TTITLE16=Greatest little Christmas ever wz - Ray Stevens
TTITLE17=Jingle Bells - Statler Brothers
TTITLE18=Christmas Time - john Anderson
TTITLE19=Holly jolly Christmas - Burl Ives
EXTD=
EXTT0=
EXTT1=
EXTT2=
EXTT3=
EXTT4=
EXTT5=
EXTT6=
EXTT7=
EXTT8=
EXTT9=
EXTT10=
EXTT11=
EXTT12=
EXTT13=
EXTT14=
EXTT15=
EXTT16=
EXTT17=
EXTT18=
EXTT19=
PLAYORDER=
